<?xml version="1.0" standalone="no"?>
<!DOCTYPE svg PUBLIC "-//W3C//DTD SVG 20010904//EN"
 "http://www.w3.org/TR/2001/REC-SVG-20010904/DTD/svg10.dtd">
<svg version="1.0" xmlns="http://www.w3.org/2000/svg"
 width="1920.000000pt" height="1080.000000pt" viewBox="0 0 1920.000000 1080.000000"
 preserveAspectRatio="xMidYMid meet">

<g transform="translate(0.000000,1080.000000) scale(0.100000,-0.100000)"
fill="#000000" stroke="none">
<path d="M11262 5757 c-40 -47 -8 -117 54 -117 63 0 99 74 56 113 -22 20 -95
23 -110 4z"/>
<path d="M6946 5722 c-6 -11 -226 -637 -226 -645 0 -4 33 -7 74 -7 l73 0 24
80 23 80 121 0 122 0 23 -80 23 -80 73 0 c41 0 74 4 74 8 0 4 -51 152 -113
327 l-113 320 -86 3 c-48 1 -89 -1 -92 -6z m134 -239 c22 -72 40 -133 40 -137
0 -9 -158 -8 -163 2 -3 4 5 41 18 82 13 41 31 101 40 133 9 32 19 57 21 55 2
-2 22 -63 44 -135z"/>
<path d="M9240 5400 l0 -330 70 0 70 0 0 330 0 330 -70 0 -70 0 0 -330z"/>
<path d="M8628 5687 c-98 -37 -159 -90 -202 -176 -30 -61 -38 -94 -37 -167 1
-164 119 -301 286 -334 149 -29 313 55 376 193 l19 42 -26 23 c-36 31 -53 25
-81 -28 -33 -62 -60 -89 -118 -116 -207 -98 -424 100 -349 319 55 161 272 218
404 107 l35 -29 -29 -24 c-16 -13 -26 -29 -22 -35 12 -20 187 -115 196 -106 5
5 12 57 16 116 8 120 1 133 -52 105 -26 -13 -28 -13 -55 18 -16 17 -57 47 -91
65 -55 30 -74 34 -148 37 -55 2 -98 -2 -122 -10z"/>
<path d="M8083 5629 c-14 -39 -26 -55 -55 -72 -32 -17 -38 -26 -38 -54 0 -30
3 -33 29 -33 l29 0 4 -152 c3 -173 15 -208 78 -241 38 -20 130 -19 183 2 24 9
27 15 27 59 l0 49 -49 -11 c-41 -8 -53 -7 -75 7 -26 17 -26 18 -26 152 l0 135
70 0 70 0 0 55 0 55 -70 0 -70 0 0 50 0 50 -45 0 c-44 0 -44 0 -62 -51z"/>
<path d="M7423 5564 c-3 -8 -4 -97 -1 -197 4 -160 7 -187 26 -223 47 -93 201
-113 283 -38 32 31 35 30 48 -6 9 -28 13 -30 60 -30 l51 0 0 255 0 256 -67 -3
-68 -3 -5 -170 c-5 -184 -11 -205 -62 -226 -38 -16 -95 -3 -110 24 -8 14 -14
83 -16 200 l-4 177 -64 0 c-49 0 -66 -4 -71 -16z"/>
<path d="M9540 5325 l0 -255 65 0 65 0 0 133 c1 215 22 267 105 267 78 0 80
-4 83 -214 l3 -186 70 0 69 0 0 193 c0 180 -1 196 -22 237 -30 56 -74 80 -151
80 -65 0 -114 -17 -145 -50 l-20 -22 -12 36 c-11 35 -13 36 -61 36 l-49 0 0
-255z"/>
<path d="M10080 5569 c0 -6 42 -121 93 -255 l92 -244 71 0 71 0 91 238 c50
130 94 245 97 255 7 16 1 18 -65 15 l-73 -3 -39 -110 c-22 -60 -50 -148 -63
-195 -15 -54 -24 -74 -24 -55 -1 16 -27 105 -58 197 l-57 168 -68 0 c-43 0
-68 -4 -68 -11z"/>
<path d="M10775 5561 c-90 -42 -129 -110 -129 -226 -1 -102 20 -160 79 -214
51 -47 108 -65 186 -58 135 12 208 93 217 238 8 135 -48 238 -144 267 -62 18
-162 15 -209 -7z m167 -102 c46 -25 64 -150 32 -228 -12 -31 -24 -43 -50 -51
-40 -14 -86 -6 -107 18 -48 54 -46 203 4 253 21 21 87 26 121 8z"/>
<path d="M11250 5325 l0 -255 70 0 70 0 -2 253 -3 252 -67 3 -68 3 0 -256z"/>
<path d="M11635 5561 c-51 -24 -80 -52 -107 -104 -32 -62 -32 -212 2 -280 49
-102 192 -143 330 -96 29 11 30 13 30 71 0 53 -2 59 -17 53 -95 -41 -151 -42
-191 -5 -50 47 -53 184 -4 241 25 30 28 31 86 26 34 -3 70 -8 82 -12 18 -6 24
1 42 45 l21 51 -27 11 c-15 7 -67 13 -117 15 -73 3 -98 0 -130 -16z"/>
<path d="M12135 5573 c-11 -3 -39 -18 -61 -34 -56 -38 -86 -101 -92 -194 -12
-189 100 -297 293 -282 39 3 88 12 108 21 36 15 37 17 37 67 0 45 -2 50 -17
44 -90 -34 -177 -40 -226 -13 -22 12 -57 67 -57 91 0 15 15 17 165 17 l165 0
0 28 c0 60 -21 147 -42 179 -35 51 -108 83 -187 82 -37 -1 -75 -4 -86 -6z
m148 -112 c9 -9 21 -31 26 -49 l10 -32 -99 0 -99 0 9 31 c17 58 53 82 110 71
14 -2 33 -12 43 -21z"/>
</g>
</svg>
